<svg width="192" height="108" viewBox="0 0 192 108" fill="none" xmlns="http://www.w3.org/2000/svg">
<rect width="192" height="108" fill="#E7E7E4"/>
<path d="M90.1667 24.8333V30.6667" stroke="#B4B4B4" stroke-width="6" stroke-linecap="round" stroke-linejoin="round"/>
<path d="M101.833 24.8333V36.5" stroke="#B4B4B4" stroke-width="6" stroke-linecap="round" stroke-linejoin="round"/>
<path d="M110.583 24.8333C111.357 24.8333 112.099 25.1406 112.646 25.6876C113.193 26.2346 113.5 26.9764 113.5 27.75V54H78.5V27.75C78.5 26.9764 78.8073 26.2346 79.3543 25.6876C79.9013 25.1406 80.6431 24.8333 81.4167 24.8333H110.583Z" stroke="#B4B4B4" stroke-width="6" stroke-linecap="round" stroke-linejoin="round"/>
<path d="M78.5 54C77.7264 54 76.9846 54.3073 76.4376 54.8543C75.8906 55.4013 75.5833 56.1431 75.5833 56.9167V59.8333C75.5833 61.3804 76.1979 62.8642 77.2919 63.9581C78.3858 65.0521 79.8695 65.6667 81.4166 65.6667H87.25C88.0235 65.6667 88.7654 65.974 89.3124 66.5209C89.8594 67.0679 90.1666 67.8098 90.1666 68.5833V77.0417C90.1666 78.5888 90.7812 80.0725 91.8752 81.1665C92.9692 82.2604 94.4529 82.875 96 82.875C97.5471 82.875 99.0308 82.2604 100.125 81.1665C101.219 80.0725 101.833 78.5888 101.833 77.0417V68.5833C101.833 67.8098 102.141 67.0679 102.688 66.5209C103.235 65.974 103.976 65.6667 104.75 65.6667H110.583C112.13 65.6667 113.614 65.0521 114.708 63.9581C115.802 62.8642 116.417 61.3804 116.417 59.8333V56.9167C116.417 56.1431 116.109 55.4013 115.562 54.8543C115.015 54.3073 114.274 54 113.5 54" stroke="#B4B4B4" stroke-width="6" stroke-linecap="round" stroke-linejoin="round"/>
</svg>
