<svg width="22" height="22" viewBox="0 0 22 22" fill="none" xmlns="http://www.w3.org/2000/svg">
<path d="M13.5 16.5L11.5858 14.5858C11.2107 14.2107 11 13.702 11 13.1716V8.82843C11 8.29799 10.7893 7.78929 10.4142 7.41421L8.5 5.5M8.5 17L7.58579 16.0858C7.21071 15.7107 7 15.202 7 14.6716V10.3284C7 9.79799 6.78929 9.28929 6.41421 8.91421L5.5 8M13.5 5L14.4142 5.91421C14.7893 6.28929 15 6.79799 15 7.32843V11.6716C15 12.202 15.2107 12.7107 15.5858 13.0858L16.5 14" stroke="black" stroke-width="2" stroke-linecap="round"/>
<circle cx="11" cy="11" r="10" stroke="black" stroke-width="2"/>
</svg>
