<svg width="192" height="108" viewBox="0 0 192 108" fill="none" xmlns="http://www.w3.org/2000/svg">
<rect width="192" height="108" fill="#E7E7E4"/>
<path d="M119.417 33.5833L128.167 24.8333" stroke="#C0C0C0" stroke-width="6" stroke-linecap="round" stroke-linejoin="round"/>
<path d="M69.8333 83.1667L78.5833 74.4167" stroke="#C0C0C0" stroke-width="6" stroke-linecap="round" stroke-linejoin="round"/>
<path d="M82.375 78.2083C83.0253 78.8609 83.798 79.3787 84.6489 79.732C85.4998 80.0853 86.412 80.2672 87.3333 80.2672C88.2546 80.2672 89.1668 80.0853 90.0177 79.732C90.8686 79.3787 91.6413 78.8609 92.2916 78.2083L99 71.5L81.5 54L74.7916 60.7083C74.1391 61.3587 73.6213 62.1314 73.268 62.9823C72.9147 63.8331 72.7328 64.7454 72.7328 65.6667C72.7328 66.588 72.9147 67.5002 73.268 68.3511C73.6213 69.2019 74.1391 69.9747 74.7916 70.625L82.375 78.2083Z" stroke="#C0C0C0" stroke-width="6" stroke-linecap="round" stroke-linejoin="round"/>
<path d="M85.875 58.375L93.1667 51.0833" stroke="#C0C0C0" stroke-width="6" stroke-linecap="round" stroke-linejoin="round"/>
<path d="M94.625 67.125L101.917 59.8333" stroke="#C0C0C0" stroke-width="6" stroke-linecap="round" stroke-linejoin="round"/>
<path d="M99 36.5L116.5 54L123.208 47.2917C123.861 46.6413 124.379 45.8686 124.732 45.0177C125.085 44.1669 125.267 43.2546 125.267 42.3333C125.267 41.412 125.085 40.4998 124.732 39.6489C124.379 38.7981 123.861 38.0253 123.208 37.375L115.625 29.7917C114.975 29.1391 114.202 28.6213 113.351 28.268C112.5 27.9147 111.588 27.7328 110.667 27.7328C109.745 27.7328 108.833 27.9147 107.982 28.268C107.131 28.6213 106.359 29.1391 105.708 29.7917L99 36.5Z" stroke="#C0C0C0" stroke-width="6" stroke-linecap="round" stroke-linejoin="round"/>
</svg>
