<svg width="192" height="108" viewBox="0 0 192 108" fill="none" xmlns="http://www.w3.org/2000/svg">
<rect width="192" height="108" fill="#E7E7E4"/>
<rect x="160" y="20" width="28" height="34" rx="4" fill="#C0C0C0"/>
<rect width="192" height="16" fill="#C0C0C0"/>
<rect x="164" y="4" width="24" height="8" rx="2" fill="#A4A4A4"/>
<rect x="144" y="4" width="16" height="8" rx="2" fill="#A4A4A4"/>
<rect x="108" y="4" width="32" height="8" rx="2" fill="#A4A4A4"/>
<path d="M6.5 9.5L9.29289 6.70711C9.68342 6.31658 10.3166 6.31658 10.7071 6.70711L13.2929 9.29289C13.6834 9.68342 14.3166 9.68342 14.7071 9.29289L17.2929 6.70711C17.6834 6.31658 18.3166 6.31658 18.7071 6.70711L21.2929 9.29289C21.6834 9.68342 22.3166 9.68342 22.7071 9.29289L25.2929 6.70711C25.6834 6.31658 26.3166 6.31658 26.7071 6.70711L29.2929 9.29289C29.6834 9.68342 30.3166 9.68342 30.7071 9.29289L33.2929 6.70711C33.6834 6.31658 34.3166 6.31658 34.7071 6.70711L37.2929 9.29289C37.6834 9.68342 38.3166 9.68342 38.7071 9.29289L41.2929 6.70711C41.6834 6.31658 42.3166 6.31658 42.7071 6.70711L45.2929 9.29289C45.6834 9.68342 46.3166 9.68342 46.7071 9.29289L49.2929 6.70711C49.6834 6.31658 50.3166 6.31658 50.7071 6.70711L53.2929 9.29289C53.6834 9.68342 54.3166 9.68342 54.7071 9.29289L57.5 6.5" stroke="#A4A4A4" stroke-width="4" stroke-linecap="round"/>
<rect x="162" y="22" width="24" height="6" rx="2" fill="#A4A4A4"/>
<rect x="162" y="30" width="24" height="6" rx="2" fill="#A4A4A4"/>
<rect x="162" y="38" width="24" height="6" rx="2" fill="#A4A4A4"/>
<rect x="162" y="46" width="24" height="6" rx="2" fill="#A4A4A4"/>
<path d="M185 7L183.177 8.82322C183.079 8.92085 182.921 8.92085 182.823 8.82322L181 7" stroke="#C0C0C0" stroke-width="2" stroke-linecap="round"/>
</svg>
