<svg width="192" height="108" viewBox="0 0 192 108" fill="none" xmlns="http://www.w3.org/2000/svg">
<rect width="192" height="108" fill="#E7E7E4"/>
<rect width="192" height="12" fill="#C0C0C0"/>
<rect x="173" y="3" width="16" height="6" rx="2" fill="#A4A4A4"/>
<rect x="154" y="3" width="16" height="6" rx="2" fill="#A4A4A4"/>
<rect x="135" y="3" width="16" height="6" rx="2" fill="#A4A4A4"/>
<rect x="20" y="79" width="24" height="6" rx="2" fill="#A4A4A4"/>
<path d="M4 6.5L4.79289 5.70711C5.18342 5.31658 5.81658 5.31658 6.20711 5.70711L6.79289 6.29289C7.18342 6.68342 7.81658 6.68342 8.20711 6.29289L8.79289 5.70711C9.18342 5.31658 9.81658 5.31658 10.2071 5.70711L10.7929 6.29289C11.1834 6.68342 11.8166 6.68342 12.2071 6.29289L12.7929 5.70711C13.1834 5.31658 13.8166 5.31658 14.2071 5.70711L14.7929 6.29289C15.1834 6.68342 15.8166 6.68342 16.2071 6.29289L16.7929 5.70711C17.1834 5.31658 17.8166 5.31658 18.2071 5.70711L18.7929 6.29289C19.1834 6.68342 19.8166 6.68342 20.2071 6.29289L20.7929 5.70711C21.1834 5.31658 21.8166 5.31658 22.2071 5.70711L22.7929 6.29289C23.1834 6.68342 23.8166 6.68342 24.2071 6.29289L24.7929 5.70711C25.1834 5.31658 25.8166 5.31658 26.2071 5.70711L26.7929 6.29289C27.1834 6.68342 27.8166 6.68342 28.2071 6.29289L29 5.5" stroke="#A4A4A4" stroke-width="2" stroke-linecap="round"/>
<path d="M21 65.5L21.7929 64.7071C22.1834 64.3166 22.8166 64.3166 23.2071 64.7071L23.7929 65.2929C24.1834 65.6834 24.8166 65.6834 25.2071 65.2929L25.7929 64.7071C26.1834 64.3166 26.8166 64.3166 27.2071 64.7071L27.7929 65.2929C28.1834 65.6834 28.8166 65.6834 29.2071 65.2929L29.7929 64.7071C30.1834 64.3166 30.8166 64.3166 31.2071 64.7071L31.7929 65.2929C32.1834 65.6834 32.8166 65.6834 33.2071 65.2929L33.7929 64.7071C34.1834 64.3166 34.8166 64.3166 35.2071 64.7071L35.7929 65.2929C36.1834 65.6834 36.8166 65.6834 37.2071 65.2929L37.7929 64.7071C38.1834 64.3166 38.8166 64.3166 39.2071 64.7071L39.7929 65.2929C40.1834 65.6834 40.8166 65.6834 41.2071 65.2929L41.7929 64.7071C42.1834 64.3166 42.8166 64.3166 43.2071 64.7071L43.7929 65.2929C44.1834 65.6834 44.8166 65.6834 45.2071 65.2929L46 64.5" stroke="#C0C0C0" stroke-opacity="0.75" stroke-width="2" stroke-linecap="round"/>
<path d="M21 71.5L21.7929 70.7071C22.1834 70.3166 22.8166 70.3166 23.2071 70.7071L23.7929 71.2929C24.1834 71.6834 24.8166 71.6834 25.2071 71.2929L25.7929 70.7071C26.1834 70.3166 26.8166 70.3166 27.2071 70.7071L27.7929 71.2929C28.1834 71.6834 28.8166 71.6834 29.2071 71.2929L29.7929 70.7071C30.1834 70.3166 30.8166 70.3166 31.2071 70.7071L31.7929 71.2929C32.1834 71.6834 32.8166 71.6834 33.2071 71.2929L33.7929 70.7071C34.1834 70.3166 34.8166 70.3166 35.2071 70.7071L35.7929 71.2929C36.1834 71.6834 36.8166 71.6834 37.2071 71.2929L37.7929 70.7071C38.1834 70.3166 38.8166 70.3166 39.2071 70.7071L39.7929 71.2929C40.1834 71.6834 40.8166 71.6834 41.2071 71.2929L42 70.5" stroke="#C0C0C0" stroke-opacity="0.75" stroke-width="2" stroke-linecap="round"/>
<path d="M20 37L23.1716 33.8284C24.7337 32.2663 27.2663 32.2663 28.8284 33.8284L31.1716 36.1716C32.7337 37.7337 35.2663 37.7337 36.8284 36.1716L39.1716 33.8284C40.7337 32.2663 43.2663 32.2663 44.8284 33.8284L47.1716 36.1716C48.7337 37.7337 51.2663 37.7337 52.8284 36.1716L55.1716 33.8284C56.7337 32.2663 59.2663 32.2663 60.8284 33.8284L63.1716 36.1716C64.7337 37.7337 67.2663 37.7337 68.8284 36.1716L71.1716 33.8284C72.7337 32.2663 75.2663 32.2663 76.8284 33.8284L79.1716 36.1716C80.7337 37.7337 83.2663 37.7337 84.8284 36.1716L87.1716 33.8284C88.7337 32.2663 91.2663 32.2663 92.8284 33.8284L95.1716 36.1716C96.7337 37.7337 99.2663 37.7337 100.828 36.1716L103.172 33.8284C104.734 32.2663 107.266 32.2663 108.828 33.8284L111.172 36.1716C112.734 37.7337 115.266 37.7337 116.828 36.1716L120 33" stroke="#C0C0C0" stroke-width="8" stroke-linecap="round"/>
<path d="M20 53L23.1716 49.8284C24.7337 48.2663 27.2663 48.2663 28.8284 49.8284L31.1716 52.1716C32.7337 53.7337 35.2663 53.7337 36.8284 52.1716L39.1716 49.8284C40.7337 48.2663 43.2663 48.2663 44.8284 49.8284L47.1716 52.1716C48.7337 53.7337 51.2663 53.7337 52.8284 52.1716L55.1716 49.8284C56.7337 48.2663 59.2663 48.2663 60.8284 49.8284L63.1716 52.1716C64.7337 53.7337 67.2663 53.7337 68.8284 52.1716L71.1716 49.8284C72.7337 48.2663 75.2663 48.2663 76.8284 49.8284L80 53" stroke="#C0C0C0" stroke-width="8" stroke-linecap="round"/>
<g clip-path="url(#clip0_340_50)">
<path d="M153.6 120.379H166.613C167.717 120.379 168.613 119.484 168.613 118.379V90.0197C168.613 90.0197 162.746 92.3664 154.24 91.9264C145.733 91.4864 139.573 90.0197 139.573 90.0197V93.393L130.13 111.747C129.604 112.77 130.047 114.025 131.1 114.491L142.705 119.624C143.667 120.049 144.793 119.657 145.284 118.727L151.6 106.74V118.379C151.6 119.484 152.495 120.379 153.6 120.379Z" fill="#A4A4A4"/>
<path d="M135.32 68.46L137.226 65.0867L143.533 66.7L140.746 76.6732C139.418 78.7485 136.725 79.4655 134.541 78.3253L118.013 69.6977L114.64 70.9533L114.5 70C114.5 70 119.546 69.2405 118.5 65C117.534 61.0853 117.501 61.0018 116.563 58.6565L116.5 58.5C115.5 56 112 56 112 56L118.5 54.5L117.674 51.0437C117.453 50.1165 117.991 49.1771 118.903 48.8995C119.866 48.6066 120.882 49.158 121.161 50.1246L124.76 62.5934L135.32 68.46Z" fill="#8D8D8D"/>
<path d="M116.179 60.2428C115.329 57.4909 112.409 55.949 109.657 56.7988C108.19 57.252 107.367 58.8091 107.821 60.2768L110.613 69.3193C111.066 70.7869 112.623 71.6093 114.091 71.1561C116.843 70.3063 118.385 67.3866 117.535 64.6348L116.179 60.2428Z" fill="#8D8D8D"/>
<path d="M180.742 71.5344L175.946 64.5L170.959 67.8733L176.973 78.8732C177.232 78.8732 177.491 78.8451 177.734 78.8031C178.617 78.6505 179.401 78.1833 180.146 77.6865L180.499 77.4515C180.688 77.3255 180.845 77.1572 180.957 76.96C181.929 75.2591 181.846 73.1529 180.742 71.5344Z" fill="#8D8D8D"/>
<path d="M157.026 54.0868V51.8868L156.5 45L151.5 49L151.6 52.0335V54.0868H157.026Z" fill="#8D8D8D"/>
<path d="M135.76 65.2333L141.773 67.4333C141.773 67.4333 140.39 72.8204 139.866 77.1132C139.46 80.4465 139.258 85.7871 139.177 88.4871C139.148 89.4588 139.826 90.3004 140.783 90.4707C143.996 91.0424 151.196 92.2197 156 92.2197C159.76 92.2197 164.936 91.118 167.437 90.5286C168.31 90.3228 168.915 89.5464 168.928 88.6496L169.199 70.22L177.119 64.7934C177.119 64.7934 173.159 57.7534 169.199 55.1135C166.968 53.626 165.374 53.0076 162.746 52.4735C160.551 52.0273 157.026 51.8868 157.026 51.8868C157.026 51.8868 156.94 52.891 156.293 53.3535C155.541 53.8903 155.016 53.9401 154.093 53.9401C153.36 53.9401 152.48 53.7935 152.04 53.2068C151.689 52.7395 151.6 52.0335 151.6 52.0335C151.6 52.0335 147.56 51.7627 145.293 52.7668C143.174 53.7053 142.326 54.8843 140.746 56.5801C138.102 59.4194 135.76 65.2333 135.76 65.2333Z" fill="#C0C0C0"/>
<path d="M157.046 76L176.973 78.8732L173.013 68.46L159.52 65.82L157.046 76Z" fill="#8D8D8D"/>
<path d="M159.896 64.8446C159.588 62.7589 157.648 61.3174 155.562 61.625C151.652 62.2017 148.949 65.8394 149.526 69.7501L149.704 70.9589C150.281 74.8696 153.918 77.5723 157.829 76.9956C159.915 76.6881 161.356 74.7479 161.049 72.6622L159.896 64.8446Z" fill="#8D8D8D"/>
<path d="M143.093 40.5936C143.32 41.8118 144.56 42.6469 145.733 42.3536C146.906 42.0603 146.466 39.127 146.466 39.127L155.706 37.0737L158.346 47.3402C158.346 47.3402 158.797 47.3867 159.08 47.3402C159.962 47.195 160.388 46.6462 160.84 45.8736C161.253 45.1654 161.28 44.7002 161.28 43.8203C161.28 42.9403 160.546 37.0737 160.253 35.4603C159.96 33.847 159.79 32.8118 158.493 32.0871C157.874 31.7415 157.433 31.5415 156.733 31.6471C155.994 31.7583 155.12 32.6737 155.12 32.6737C155.12 32.6737 153.911 31.4975 152.92 31.2071C151.985 30.9332 151.359 30.9288 150.426 31.2071C149.14 31.5906 147.786 33.407 147.786 33.407C147.786 33.407 146.583 32.2935 145.586 32.3804C144.821 32.4471 144.261 32.7575 143.68 33.2604C142.885 33.9485 142.553 34.5566 142.506 35.607C142.45 36.8632 143.973 38.3936 143.973 38.3936C143.386 38.687 142.924 39.6839 143.093 40.5936Z" fill="#A4A4A4"/>
<path d="M157.956 38.966C157.481 36.8568 155.386 35.532 153.277 36.007L148.412 37.1026C146.303 37.5776 144.978 39.6725 145.453 41.7817L146.196 45.078C146.973 48.5304 150.402 50.6989 153.855 49.9214C157.307 49.1438 159.476 45.7147 158.698 42.2623L157.956 38.966Z" fill="#8D8D8D"/>
</g>
<defs>
<clipPath id="clip0_340_50">
<rect width="83" height="94" fill="white" transform="translate(104 14)"/>
</clipPath>
</defs>
</svg>
