<svg width="192" height="108" viewBox="0 0 192 108" fill="none" xmlns="http://www.w3.org/2000/svg">
<rect width="192" height="108" fill="#E7E7E4"/>
<rect y="45" width="192" height="63" fill="#C0C0C0"/>
<rect x="4" y="86" width="32" height="8" rx="2" fill="#A4A4A4"/>
<rect x="4" y="96" width="24" height="8" rx="2" fill="#A4A4A4"/>
<path d="M6 54L8.79289 51.2071C9.18342 50.8166 9.81658 50.8166 10.2071 51.2071L12.7929 53.7929C13.1834 54.1834 13.8166 54.1834 14.2071 53.7929L16.7929 51.2071C17.1834 50.8166 17.8166 50.8166 18.2071 51.2071L20.7929 53.7929C21.1834 54.1834 21.8166 54.1834 22.2071 53.7929L24.7929 51.2071C25.1834 50.8166 25.8166 50.8166 26.2071 51.2071L28.7929 53.7929C29.1834 54.1834 29.8166 54.1834 30.2071 53.7929L32.7929 51.2071C33.1834 50.8166 33.8166 50.8166 34.2071 51.2071L36.7929 53.7929C37.1834 54.1834 37.8166 54.1834 38.2071 53.7929L41 51" stroke="#A4A4A4" stroke-width="4" stroke-linecap="round"/>
<path d="M7 62.5L7.79289 61.7071C8.18342 61.3166 8.81658 61.3166 9.20711 61.7071L9.79289 62.2929C10.1834 62.6834 10.8166 62.6834 11.2071 62.2929L11.7929 61.7071C12.1834 61.3166 12.8166 61.3166 13.2071 61.7071L13.7929 62.2929C14.1834 62.6834 14.8166 62.6834 15.2071 62.2929L16 61.5M19 61.5L19.7929 62.2929C20.1834 62.6834 20.8166 62.6834 21.2071 62.2929L21.7929 61.7071C22.1834 61.3166 22.8166 61.3166 23.2071 61.7071L23.7929 62.2929C24.1834 62.6834 24.8166 62.6834 25.2071 62.2929L25.7929 61.7071C26.1834 61.3166 26.8166 61.3166 27.2071 61.7071L27.7929 62.2929C28.1834 62.6834 28.8166 62.6834 29.2071 62.2929L30 61.5" stroke="#B2B2B2" stroke-width="2" stroke-linecap="round"/>
<path d="M7 80.5L7.79289 79.7071C8.18342 79.3166 8.81658 79.3166 9.20711 79.7071L9.79289 80.2929C10.1834 80.6834 10.8166 80.6834 11.2071 80.2929L11.7929 79.7071C12.1834 79.3166 12.8166 79.3166 13.2071 79.7071L13.7929 80.2929C14.1834 80.6834 14.8166 80.6834 15.2071 80.2929L15.7929 79.7071C16.1834 79.3166 16.8166 79.3166 17.2071 79.7071L18 80.5" stroke="#B2B2B2" stroke-width="2" stroke-linecap="round"/>
<path d="M7 68.5L7.79289 67.7071C8.18342 67.3166 8.81658 67.3166 9.20711 67.7071L9.79289 68.2929C10.1834 68.6834 10.8166 68.6834 11.2071 68.2929L11.7929 67.7071C12.1834 67.3166 12.8166 67.3166 13.2071 67.7071L13.7929 68.2929C14.1834 68.6834 14.8166 68.6834 15.2071 68.2929L15.7929 67.7071C16.1834 67.3166 16.8166 67.3166 17.2071 67.7071L17.7929 68.2929C18.1834 68.6834 18.8166 68.6834 19.2071 68.2929L19.7929 67.7071C20.1834 67.3166 20.8166 67.3166 21.2071 67.7071L22 68.5" stroke="#B2B2B2" stroke-width="2" stroke-linecap="round"/>
<path d="M7 74.5L7.79289 73.7071C8.18342 73.3166 8.81658 73.3166 9.20711 73.7071L9.79289 74.2929C10.1834 74.6834 10.8166 74.6834 11.2071 74.2929L12 73.5M15 74.5L15.7929 73.7071C16.1834 73.3166 16.8166 73.3166 17.2071 73.7071L17.7929 74.2929C18.1834 74.6834 18.8166 74.6834 19.2071 74.2929L19.7929 73.7071C20.1834 73.3166 20.8166 73.3166 21.2071 73.7071L21.7929 74.2929C22.1834 74.6834 22.8166 74.6834 23.2071 74.2929L23.7929 73.7071C24.1834 73.3166 24.8166 73.3166 25.2071 73.7071L26 74.5" stroke="#B2B2B2" stroke-width="2" stroke-linecap="round"/>
<path d="M151 54L153.793 51.2071C154.183 50.8166 154.817 50.8166 155.207 51.2071L157.793 53.7929C158.183 54.1834 158.817 54.1834 159.207 53.7929L161.793 51.2071C162.183 50.8166 162.817 50.8166 163.207 51.2071L165.793 53.7929C166.183 54.1834 166.817 54.1834 167.207 53.7929L169.793 51.2071C170.183 50.8166 170.817 50.8166 171.207 51.2071L173.793 53.7929C174.183 54.1834 174.817 54.1834 175.207 53.7929L177.793 51.2071C178.183 50.8166 178.817 50.8166 179.207 51.2071L181.793 53.7929C182.183 54.1834 182.817 54.1834 183.207 53.7929L186 51" stroke="#A4A4A4" stroke-width="4" stroke-linecap="round"/>
<path d="M159 62.5L159.793 61.7071C160.183 61.3166 160.817 61.3166 161.207 61.7071L161.793 62.2929C162.183 62.6834 162.817 62.6834 163.207 62.2929L163.793 61.7071C164.183 61.3166 164.817 61.3166 165.207 61.7071L166 62.5M169 61.5L169.793 62.2929C170.183 62.6834 170.817 62.6834 171.207 62.2929L171.793 61.7071C172.183 61.3166 172.817 61.3166 173.207 61.7071L173.793 62.2929C174.183 62.6834 174.817 62.6834 175.207 62.2929L175.793 61.7071C176.183 61.3166 176.817 61.3166 177.207 61.7071L177.793 62.2929C178.183 62.6834 178.817 62.6834 179.207 62.2929L180 61.5" stroke="#B2B2B2" stroke-width="2" stroke-linecap="round"/>
<path d="M159 68.5L159.793 67.7071C160.183 67.3166 160.817 67.3166 161.207 67.7071L161.793 68.2929C162.183 68.6834 162.817 68.6834 163.207 68.2929L163.793 67.7071C164.183 67.3166 164.817 67.3166 165.207 67.7071L165.793 68.2929C166.183 68.6834 166.817 68.6834 167.207 68.2929L167.793 67.7071C168.183 67.3166 168.817 67.3166 169.207 67.7071L169.793 68.2929C170.183 68.6834 170.817 68.6834 171.207 68.2929L171.793 67.7071C172.183 67.3166 172.817 67.3166 173.207 67.7071L174 68.5" stroke="#B2B2B2" stroke-width="2" stroke-linecap="round"/>
<path d="M159 74.5L159.793 73.7071C160.183 73.3166 160.817 73.3166 161.207 73.7071L161.793 74.2929C162.183 74.6834 162.817 74.6834 163.207 74.2929L163.793 73.7071C164.183 73.3166 164.817 73.3166 165.207 73.7071L165.793 74.2929C166.183 74.6834 166.817 74.6834 167.207 74.2929L167.793 73.7071C168.183 73.3166 168.817 73.3166 169.207 73.7071L169.793 74.2929C170.183 74.6834 170.817 74.6834 171.207 74.2929L171.793 73.7071C172.183 73.3166 172.817 73.3166 173.207 73.7071L173.793 74.2929C174.183 74.6834 174.817 74.6834 175.207 74.2929L175.793 73.7071C176.183 73.3166 176.817 73.3166 177.207 73.7071L177.793 74.2929C178.183 74.6834 178.817 74.6834 179.207 74.2929L180 73.5" stroke="#B2B2B2" stroke-width="2" stroke-linecap="round"/>
<rect x="76.5" y="86" width="24" height="8" rx="2" fill="#A4A4A4"/>
<rect x="76.5" y="96" width="32" height="8" rx="2" fill="#A4A4A4"/>
<path d="M78.5 54L81.2929 51.2071C81.6834 50.8166 82.3166 50.8166 82.7071 51.2071L85.2929 53.7929C85.6834 54.1834 86.3166 54.1834 86.7071 53.7929L89.2929 51.2071C89.6834 50.8166 90.3166 50.8166 90.7071 51.2071L93.2929 53.7929C93.6834 54.1834 94.3166 54.1834 94.7071 53.7929L97.2929 51.2071C97.6834 50.8166 98.3166 50.8166 98.7071 51.2071L101.293 53.7929C101.683 54.1834 102.317 54.1834 102.707 53.7929L105.293 51.2071C105.683 50.8166 106.317 50.8166 106.707 51.2071L109.293 53.7929C109.683 54.1834 110.317 54.1834 110.707 53.7929L113.5 51" stroke="#A4A4A4" stroke-width="4" stroke-linecap="round"/>
<path d="M79.5 62.5L80.2929 61.7071C80.6834 61.3166 81.3166 61.3166 81.7071 61.7071L82.5 62.5M85.5 61.5L86.2929 62.2929C86.6834 62.6834 87.3166 62.6834 87.7071 62.2929L88.2929 61.7071C88.6834 61.3166 89.3166 61.3166 89.7071 61.7071L90.2929 62.2929C90.6834 62.6834 91.3166 62.6834 91.7071 62.2929L92.2929 61.7071C92.6834 61.3166 93.3166 61.3166 93.7071 61.7071L94.2929 62.2929C94.6834 62.6834 95.3166 62.6834 95.7071 62.2929L96.2929 61.7071C96.6834 61.3166 97.3166 61.3166 97.7071 61.7071L98.2929 62.2929C98.6834 62.6834 99.3166 62.6834 99.7071 62.2929L100.5 61.5" stroke="#B2B2B2" stroke-width="2" stroke-linecap="round"/>
<path d="M79.5 80.5L80.2929 79.7071C80.6834 79.3166 81.3166 79.3166 81.7071 79.7071L82.2929 80.2929C82.6834 80.6834 83.3166 80.6834 83.7071 80.2929L84.2929 79.7071C84.6834 79.3166 85.3166 79.3166 85.7071 79.7071L86.2929 80.2929C86.6834 80.6834 87.3166 80.6834 87.7071 80.2929L88.2929 79.7071C88.6834 79.3166 89.3166 79.3166 89.7071 79.7071L90.5 80.5" stroke="#B2B2B2" stroke-width="2" stroke-linecap="round"/>
<path d="M79.5 68.5L80.2929 67.7071C80.6834 67.3166 81.3166 67.3166 81.7071 67.7071L82.2929 68.2929C82.6834 68.6834 83.3166 68.6834 83.7071 68.2929L84.2929 67.7071C84.6834 67.3166 85.3166 67.3166 85.7071 67.7071L86.2929 68.2929C86.6834 68.6834 87.3166 68.6834 87.7071 68.2929L88.2929 67.7071C88.6834 67.3166 89.3166 67.3166 89.7071 67.7071L90.2929 68.2929C90.6834 68.6834 91.3166 68.6834 91.7071 68.2929L92.2929 67.7071C92.6834 67.3166 93.3166 67.3166 93.7071 67.7071L94.5 68.5" stroke="#B2B2B2" stroke-width="2" stroke-linecap="round"/>
<path d="M79.5 74.5L80.2929 73.7071C80.6834 73.3166 81.3166 73.3166 81.7071 73.7071L82.2929 74.2929C82.6834 74.6834 83.3166 74.6834 83.7071 74.2929L84.2929 73.7071C84.6834 73.3166 85.3166 73.3166 85.7071 73.7071L86.2929 74.2929C86.6834 74.6834 87.3166 74.6834 87.7071 74.2929L88.2929 73.7071C88.6834 73.3166 89.3166 73.3166 89.7071 73.7071L90.2929 74.2929C90.6834 74.6834 91.3166 74.6834 91.7071 74.2929L92.5 73.5M95.5 73.5L96.2929 74.2929C96.6834 74.6834 97.3166 74.6834 97.7071 74.2929L98.2929 73.7071C98.6834 73.3166 99.3166 73.3166 99.7071 73.7071L100.293 74.2929C100.683 74.6834 101.317 74.6834 101.707 74.2929L102.5 73.5" stroke="#B2B2B2" stroke-width="2" stroke-linecap="round"/>
<path d="M155 61C155 61.8284 153.5 64.5 153.5 64.5C153.5 64.5 152 61.8284 152 61C152 60.1716 152.672 59.5 153.5 59.5C154.328 59.5 155 60.1716 155 61Z" fill="#B2B2B2"/>
<path d="M151.25 66H155.75C155.888 66 156 66.1119 156 66.25V66.5C156 66.5 154 68 153.5 68C153 68 151 66.5 151 66.5V66.25C151 66.1119 151.112 66 151.25 66Z" fill="#B2B2B2"/>
<path d="M151 69.75V67C151 67 153 68.5 153.5 68.5C154 68.5 156 67 156 67V69.75C156 69.8881 155.888 70 155.75 70H151.25C151.112 70 151 69.8881 151 69.75Z" fill="#B2B2B2"/>
<path d="M154 73L155.25 71.75L155.75 72.25V73.75C155.75 75.1307 154.631 76.25 153.25 76.25H151.75L151.25 75.75L152.5 74.5L153 75H153.25C153.94 75 154.5 74.4404 154.5 73.75V73.5L154 73Z" fill="#B2B2B2"/>
</svg>
