<svg width="192" height="108" viewBox="0 0 192 108" fill="none" xmlns="http://www.w3.org/2000/svg">
<rect width="192" height="108" fill="#E7E7E4"/>
<path d="M120 78C121.591 78 123.117 77.3679 124.243 76.2426C125.368 75.1174 126 73.5913 126 72V42C126 40.4087 125.368 38.8826 124.243 37.7574C123.117 36.6321 121.591 36 120 36H96.3C95.2965 36.0098 94.3066 35.7678 93.4209 35.2961C92.5352 34.8244 91.7819 34.1381 91.23 33.3L88.8 29.7C88.2537 28.8704 87.5099 28.1894 86.6355 27.7182C85.7611 27.2469 84.7833 27.0002 83.79 27H72C70.4087 27 68.8826 27.6321 67.7574 28.7574C66.6321 29.8826 66 31.4087 66 33V72C66 73.5913 66.6321 75.1174 67.7574 76.2426C68.8826 77.3679 70.4087 78 72 78H120Z" stroke="#B4B4B4" stroke-width="6" stroke-linecap="round" stroke-linejoin="round"/>
</svg>
